# xmcd
#
# Track frame offsets:
#	150
#	11214
#	28399
#	44721
#	58628
#	71722
#	86381
#	102191
#	111516
#	129217
#	142608
#	152906
#	165869
#	177506
#	190894
#	210910
#	227285
#
# Disc length: 3235 seconds
#
# Revision: 1
# Processed by: cddbd v1.4PL0 Copyright (c) Steve Scherf et al.
# Submitted via: audiograbber 1.80.04
#
DISCID=df0ca111
DTITLE=Lars Vegas and the love gloves - Deltabilly
DYEAR=2001
DGENRE=Blues
TTITLE0=I Can't Be Satisfied
TTITLE1=Mean Old Frisco
TTITLE2=Love Glove Boogie
TTITLE3=Ain't No Tellin'
TTITLE4=Mellow Down Easy
TTITLE5=Steady Rollin' Man
TTITLE6=Broke Down Engine
TTITLE7=I Don't Care If The Sun Don't Shine
TTITLE8=Candy Man
TTITLE9=Drop Down, I Don't Feel Welcome Here
TTITLE10=Who Do You Love?
TTITLE11=32-20
TTITLE12=Stones In My Passway
TTITLE13=Stop Breaking Down
TTITLE14=Going To Brownsville
TTITLE15=Hellhound On My Trail
TTITLE16=Last Fair Deal
EXTD=
EXTT0=
EXTT1=
EXTT2=
EXTT3=
EXTT4=
EXTT5=
EXTT6=
EXTT7=
EXTT8=
EXTT9=
EXTT10=
EXTT11=
EXTT12=
EXTT13=
EXTT14=
EXTT15=
EXTT16=
PLAYORDER=
